<?xml version="1.0" encoding="UTF-8"?>
<svg id="Layer_1" data-name="Layer 1" xmlns="http://www.w3.org/2000/svg" viewBox="0 0 314.76 368.64">
  <path d="M37.84,55.13h41.35v220.53c0,7.23,2.96,13.81,7.74,18.58,4.77,4.77,11.35,7.74,18.58,7.74H247.09v28.82c0,10.41-4.25,19.87-11.11,26.73-6.85,6.85-16.32,11.11-26.73,11.11H37.84c-10.41,0-19.87-4.25-26.73-11.11-6.86-6.86-11.11-16.32-11.11-26.73V92.97c0-10.41,4.26-19.87,11.11-26.73,6.85-6.85,16.32-11.11,26.73-11.11h0Zm29.83,11.52h-29.83c-7.23,0-13.81,2.96-18.58,7.74-4.77,4.77-7.74,11.35-7.74,18.58v237.83c0,7.23,2.96,13.81,7.74,18.58,4.77,4.77,11.35,7.74,18.58,7.74H209.26c7.23,0,13.81-2.96,18.58-7.74s7.74-11.35,7.74-18.58v-17.3H105.5c-10.41,0-19.87-4.26-26.73-11.11-6.85-6.86-11.11-16.32-11.11-26.73V66.65Z"/>
  <path d="M105.5,0h171.42c10.41,0,19.87,4.26,26.73,11.11,6.86,6.85,11.11,16.32,11.11,26.73v237.83c0,10.41-4.25,19.87-11.11,26.73-6.86,6.85-16.32,11.11-26.73,11.11H105.5c-10.41,0-19.87-4.26-26.73-11.11-6.85-6.86-11.11-16.32-11.11-26.73V37.84c0-10.41,4.26-19.87,11.11-26.73C85.63,4.26,95.09,0,105.5,0h0Zm171.42,11.52H105.5c-7.23,0-13.81,2.96-18.58,7.74-4.77,4.77-7.74,11.35-7.74,18.58v237.83c0,7.23,2.96,13.81,7.74,18.58,4.77,4.77,11.35,7.74,18.58,7.74h171.42c7.23,0,13.81-2.96,18.58-7.74,4.77-4.77,7.74-11.35,7.74-18.58V37.84c0-7.23-2.96-13.81-7.74-18.58-4.77-4.77-11.35-7.74-18.58-7.74Z"/>
</svg>