<?xml version="1.0" encoding="UTF-8"?>
<svg id="Layer_1" data-name="Layer 1" xmlns="http://www.w3.org/2000/svg" viewBox="0 0 325.81 368.64">
  <path d="M40.51,27.05h244.79c3.18,0,5.76,2.58,5.76,5.76V359.72c0,2.43-1,4.66-2.62,6.28h-.01s0,.01,0,.01h.01c-.18,.19-.37,.35-.56,.5-1.56,1.32-3.57,2.12-5.74,2.12H43.67c-2.43,0-4.66-1-6.28-2.62h-.01s0-.01,0-.01h-.01c-.18-.17-.34-.35-.49-.55-1.32-1.56-2.12-3.57-2.12-5.74V32.81c0-3.18,2.58-5.76,5.76-5.76h0Zm239.03,11.52H46.27V357.12h233.27V38.57h0Zm2.61,321.16h-.01l2.23,2.23-2.22-2.23Zm0,0h-.01s0,0,0,0h0s.01,0,.01,0h0Zm-.01-.01l-1.71-1.71h-.02s1.72,1.73,1.72,1.73h0Zm-238.47,.01h0s-2.23,2.22-2.23,2.22l2.23-2.22Zm0,0h.01s-.01-.01-.01-.01h0Zm.01,0l1.72-1.71v-.02s-1.73,1.72-1.73,1.72h.01Z"/>
  <path d="M5.76,27.05c-3.18,0-5.76,2.58-5.76,5.76s2.58,5.76,5.76,5.76H320.05c3.18,0,5.76-2.58,5.76-5.76s-2.58-5.76-5.76-5.76H5.76Z"/>
  <path d="M129.15,0h67.52c3.18,0,5.76,2.58,5.76,5.76v27.05c0,3.18-2.58,5.76-5.76,5.76h-67.52c-3.18,0-5.76-2.58-5.76-5.76V5.76c0-3.18,2.58-5.76,5.76-5.76h0Zm61.75,11.52h-55.99v15.53h55.99V11.52Z"/>
  <path d="M107.46,104.07c0-3.18-2.58-5.76-5.76-5.76s-5.76,2.58-5.76,5.76v187.54c0,3.18,2.58,5.76,5.76,5.76s5.76-2.58,5.76-5.76V104.07Z"/>
  <path d="M168.66,104.07c0-3.18-2.58-5.76-5.76-5.76s-5.76,2.58-5.76,5.76v187.54c0,3.18,2.58,5.76,5.76,5.76s5.76-2.58,5.76-5.76V104.07Z"/>
  <path d="M229.86,104.07c0-3.18-2.58-5.76-5.76-5.76s-5.76,2.58-5.76,5.76v187.54c0,3.18,2.58,5.76,5.76,5.76s5.76-2.58,5.76-5.76V104.07Z"/>
</svg>