<?xml version="1.0" encoding="UTF-8"?>
<svg id="Layer_1" data-name="Layer 1" xmlns="http://www.w3.org/2000/svg" viewBox="0 0 326.49 368.64">
  <path d="M132.02,43.89c-3.18,0-5.76,2.58-5.76,5.76s2.58,5.76,5.76,5.76h182.95V357.12H67.18V161.01c0-3.18-2.58-5.76-5.76-5.76s-5.76,2.58-5.76,5.76v201.87c0,3.18,2.58,5.76,5.76,5.76H320.73c3.18,0,5.76-2.58,5.76-5.76V49.65c0-3.18-2.58-5.76-5.76-5.76H132.02Z"/>
  <path d="M145.77,177.08l47.29,15.98-15.98-47.28L49.27,17.97c-4.3-4.3-9.97-6.45-15.65-6.45s-11.35,2.15-15.65,6.45c-4.3,4.3-6.45,9.97-6.45,15.65s2.15,11.35,6.45,15.65l127.8,127.8h0Zm54.6,30.58l-59.15-19.99c-.98-.24-1.91-.75-2.67-1.51h0L9.82,57.42C3.27,50.87,0,42.24,0,33.62S3.27,16.37,9.82,9.82C16.37,3.27,25,0,33.62,0s17.25,3.27,23.8,9.82L186.06,138.47c.65,.62,1.16,1.4,1.47,2.31v.02s19.98,59.15,19.98,59.15c.54,1.26,.63,2.71,.16,4.11-1.02,3.01-4.29,4.63-7.3,3.61v-.02Z"/>
  <path d="M27.6,67.05c-2.25,2.25-2.25,5.9,0,8.14s5.9,2.25,8.14,0l39.45-39.45c2.25-2.25,2.25-5.9,0-8.15-2.25-2.25-5.9-2.25-8.15,0L27.6,67.05Z"/>
  <path d="M138.55,178c-2.25,2.25-2.25,5.9,0,8.14s5.9,2.25,8.14,0l39.45-39.45c2.25-2.25,2.25-5.9,0-8.14s-5.9-2.25-8.14,0l-39.45,39.45Z"/>
</svg>